<svg xmlns="http://www.w3.org/2000/svg" width="48" height="27" viewBox="0 0 48 27"><path d="M24,25a6,6,0,1,1-6,6,6,6,0,0,1,6-6Zm0,3a3,3,0,1,0,3,3,3,3,0,0,0-3-3Zm2-18v4.064a24.907,24.907,0,0,1,9.86,2.638l1.907-3.3,3.464,2-1.977,3.427a30.359,30.359,0,0,1,8.52,10.478l.225.438L45.459,31C40.64,21.48,33.544,16.807,24,16.807c-9.4,0-16.425,4.533-21.238,13.764L2.542,31,0,29.745A30.646,30.646,0,0,1,8.746,18.828L6.768,15.4l3.464-2,1.906,3.3A24.928,24.928,0,0,1,22,14.064V10Z" transform="translate(0 -10)" fill="#6d6d6d"/></svg>